<svg xmlns="http://www.w3.org/2000/svg" width="18.619" height="21.279" viewBox="0 0 18.619 21.279">
  <defs>
    <style>
      .cls-1 {
        fill: #7e7ef7;
      }
    </style>
  </defs>
  <path id="bell-solid" class="cls-1" d="M9.309,21.279a2.659,2.659,0,0,0,2.659-2.66H6.651A2.659,2.659,0,0,0,9.309,21.279Zm8.952-6.222c-.8-.863-2.305-2.161-2.305-6.412A6.563,6.563,0,0,0,10.639,2.2V1.33a1.329,1.329,0,1,0-2.658,0V2.2A6.563,6.563,0,0,0,2.663,8.645c0,4.252-1.5,5.55-2.305,6.412a1.3,1.3,0,0,0-.358.9,1.331,1.331,0,0,0,1.334,1.33H17.285a1.331,1.331,0,0,0,1.334-1.33A1.3,1.3,0,0,0,18.261,15.057Z" transform="translate(0)"/>
</svg>
