<svg xmlns="http://www.w3.org/2000/svg" width="11.619" height="13.279" viewBox="0 0 11.619 13.279">
  <defs>
    <style>
      .cls-1 {
        fill: #7e7ef7;
      }
    </style>
  </defs>
  <path id="bell-solid" class="cls-1" d="M5.809,13.279a1.66,1.66,0,0,0,1.659-1.66H4.15A1.66,1.66,0,0,0,5.809,13.279ZM11.4,9.4c-.5-.538-1.439-1.348-1.439-4A4.1,4.1,0,0,0,6.639,1.37V.83A.829.829,0,1,0,4.98.83v.54A4.1,4.1,0,0,0,1.662,5.395c0,2.653-.938,3.463-1.439,4A.81.81,0,0,0,0,9.959a.831.831,0,0,0,.833.83h9.954a.83.83,0,0,0,.833-.83A.81.81,0,0,0,11.4,9.4Z" transform="translate(0)"/>
</svg>
