<svg xmlns="http://www.w3.org/2000/svg" width="18.469" height="21.107" viewBox="0 0 18.469 21.107">
  <defs>
    <style>
      .cls-1 {
        fill: #7e7ef7;
      }
    </style>
  </defs>
  <path id="calendar-alt-solid" class="cls-1" d="M0,19.128a1.979,1.979,0,0,0,1.979,1.979H16.49a1.979,1.979,0,0,0,1.979-1.979V7.915H0Zm13.192-8.08a.5.5,0,0,1,.495-.495h1.649a.5.5,0,0,1,.495.495V12.7a.5.5,0,0,1-.495.495H13.687a.5.5,0,0,1-.495-.495Zm0,5.277a.5.5,0,0,1,.495-.495h1.649a.5.5,0,0,1,.495.495v1.649a.5.5,0,0,1-.495.495H13.687a.5.5,0,0,1-.495-.495ZM7.915,11.048a.5.5,0,0,1,.495-.495h1.649a.5.5,0,0,1,.495.495V12.7a.5.5,0,0,1-.495.495H8.41a.5.5,0,0,1-.495-.495Zm0,5.277a.5.5,0,0,1,.495-.495h1.649a.5.5,0,0,1,.495.495v1.649a.5.5,0,0,1-.495.495H8.41a.5.5,0,0,1-.495-.495ZM2.638,11.048a.5.5,0,0,1,.495-.495H4.782a.5.5,0,0,1,.495.495V12.7a.5.5,0,0,1-.495.495H3.133a.5.5,0,0,1-.495-.495Zm0,5.277a.5.5,0,0,1,.495-.495H4.782a.5.5,0,0,1,.495.495v1.649a.5.5,0,0,1-.495.495H3.133a.5.5,0,0,1-.495-.495ZM16.49,2.638H14.511V.66a.662.662,0,0,0-.66-.66H12.532a.662.662,0,0,0-.66.66V2.638H6.6V.66A.662.662,0,0,0,5.936,0H4.617a.662.662,0,0,0-.66.66V2.638H1.979A1.979,1.979,0,0,0,0,4.617V6.6H18.469V4.617A1.979,1.979,0,0,0,16.49,2.638Z"/>
</svg>
