<svg xmlns="http://www.w3.org/2000/svg" width="11.469" height="13.107" viewBox="0 0 11.469 13.107">
  <defs>
    <style>
      .cls-1 {
        fill: #7e7ef7;
      }
    </style>
  </defs>
  <path id="calendar-alt-solid" class="cls-1" d="M0,11.878a1.229,1.229,0,0,0,1.229,1.229H10.24a1.229,1.229,0,0,0,1.229-1.229V4.915H0ZM8.192,6.861A.308.308,0,0,1,8.5,6.553H9.523a.308.308,0,0,1,.307.307V7.885a.308.308,0,0,1-.307.307H8.5a.308.308,0,0,1-.307-.307Zm0,3.277A.308.308,0,0,1,8.5,9.83H9.523a.308.308,0,0,1,.307.307v1.024a.308.308,0,0,1-.307.307H8.5a.308.308,0,0,1-.307-.307ZM4.915,6.861a.308.308,0,0,1,.307-.307H6.246a.308.308,0,0,1,.307.307V7.885a.308.308,0,0,1-.307.307H5.222a.308.308,0,0,1-.307-.307Zm0,3.277a.308.308,0,0,1,.307-.307H6.246a.308.308,0,0,1,.307.307v1.024a.308.308,0,0,1-.307.307H5.222a.308.308,0,0,1-.307-.307ZM1.638,6.861a.308.308,0,0,1,.307-.307H2.97a.308.308,0,0,1,.307.307V7.885a.308.308,0,0,1-.307.307H1.946a.308.308,0,0,1-.307-.307Zm0,3.277a.308.308,0,0,1,.307-.307H2.97a.308.308,0,0,1,.307.307v1.024a.308.308,0,0,1-.307.307H1.946a.308.308,0,0,1-.307-.307Zm8.6-8.5H9.011V.41A.411.411,0,0,0,8.6,0H7.782a.411.411,0,0,0-.41.41V1.638H4.1V.41A.411.411,0,0,0,3.686,0H2.867a.411.411,0,0,0-.41.41V1.638H1.229A1.229,1.229,0,0,0,0,2.867V4.1H11.469V2.867A1.229,1.229,0,0,0,10.24,1.638Z"/>
</svg>
