<svg xmlns="http://www.w3.org/2000/svg" width="19.576" height="19.576" viewBox="0 0 19.576 19.576">
  <defs>
    <style>
      .cls-1 {
        fill: #7e7ef7;
      }
    </style>
  </defs>
  <path id="music-and-multimedia" class="cls-1" d="M19.576,6.473V13.1a4.011,4.011,0,0,1-4.007,4.007h-4.06l.377.377a1.223,1.223,0,1,1-1.73,1.73L7.69,16.752a1.223,1.223,0,0,1,0-1.73l2.466-2.466a1.224,1.224,0,0,1,1.73,1.73l-.377.377h4.06a1.562,1.562,0,0,0,1.56-1.56V6.473a1.562,1.562,0,0,0-1.56-1.56h-.725a1.223,1.223,0,1,1,0-2.447h.725a4.011,4.011,0,0,1,4.007,4.007ZM4.732,14.664H4.007a1.562,1.562,0,0,1-1.56-1.56V6.473a1.562,1.562,0,0,1,1.56-1.56h4.06L7.69,5.29A1.223,1.223,0,1,0,9.42,7.02l2.466-2.466a1.223,1.223,0,0,0,0-1.73L9.42.359a1.224,1.224,0,1,0-1.73,1.73l.377.377H4.007A4.011,4.011,0,0,0,0,6.473V13.1a4.011,4.011,0,0,0,4.007,4.007h.725a1.223,1.223,0,1,0,0-2.447Z" transform="translate(0 0)"/>
</svg>
