<svg xmlns="http://www.w3.org/2000/svg" width="17.501" height="20.001" viewBox="0 0 17.501 20.001">
  <defs>
    <style>
      .cls-1 {
        fill: #9a9a9a;
      }
    </style>
  </defs>
  <path id="paperclip-solid" class="cls-1" d="M1.69,18.209a6.12,6.12,0,0,1,.054-8.5L9.938,1.328a4.372,4.372,0,0,1,6.276,0,4.547,4.547,0,0,1,0,6.339l-7.143,7.3a2.915,2.915,0,0,1-4.218-.039,3.027,3.027,0,0,1,.057-4.178l5.615-5.736A.625.625,0,0,1,11.409,5l.893.874a.625.625,0,0,1,.009.884L6.7,12.5a.528.528,0,0,0-.025.715.416.416,0,0,0,.613.006l7.143-7.3a2.046,2.046,0,0,0,0-2.844,1.874,1.874,0,0,0-2.7,0L3.531,11.457a3.618,3.618,0,0,0-.047,5.012,3.331,3.331,0,0,0,4.807.011l6.721-6.875A.625.625,0,0,1,15.9,9.6l.894.874a.625.625,0,0,1,.01.884l-6.721,6.875a5.829,5.829,0,0,1-8.39-.019Z" transform="translate(0 0)"/>
</svg>
