<svg xmlns="http://www.w3.org/2000/svg" width="12.276" height="13.641" viewBox="0 0 12.276 13.641">
  <defs>
    <style>
      .cls-1 {
        fill: #7e7ef7;
      }
    </style>
  </defs>
  <path id="music-and-multimedia" class="cls-1" d="M12.276,4.51v4.62a2.667,2.667,0,0,1-2.513,2.792H7.217l.236.263a.921.921,0,0,1,0,1.206.714.714,0,0,1-1.085,0L4.822,11.673a.921.921,0,0,1,0-1.206L6.369,8.749a.714.714,0,0,1,1.085,0,.921.921,0,0,1,0,1.206l-.236.263H9.763a1.038,1.038,0,0,0,.978-1.087V4.51a1.038,1.038,0,0,0-.978-1.087H9.309a.813.813,0,0,1-.767-.853.813.813,0,0,1,.767-.853h.454A2.667,2.667,0,0,1,12.276,4.51ZM2.967,10.218H2.513a1.038,1.038,0,0,1-.978-1.087V4.51a1.038,1.038,0,0,1,.978-1.087H5.059l-.236.263a.921.921,0,0,0,0,1.206.714.714,0,0,0,1.085,0L7.454,3.174a.921.921,0,0,0,0-1.206L5.907.25a.714.714,0,0,0-1.085,0,.921.921,0,0,0,0,1.206l.236.263H2.513A2.667,2.667,0,0,0,0,4.51v4.62a2.667,2.667,0,0,0,2.513,2.792h.454a.857.857,0,0,0,0-1.705Z" transform="translate(0 0)"/>
</svg>
